# xmcd
# 
# Track frame offsets:
#     150
#     17764
#     35310
#     49194
#     66625
#     84010
#     97678
#     113712
#     124533
#     142077
#     158089
# 
# Disc length: 2309
# 
# Revision: 2
# Processed by: cddbd v1.5.2PL0 Copyright (c) Steve Scherf et al.
# Submitted via: fre:ac v1.0.17
# 
DISCID=8409030b
DTITLE=Temuera Morrison - TEM
DYEAR=2014
DGENRE=Country
TTITLE0=Midnight special
TTITLE1=Drift away
TTITLE2=Bring it on home to be
TTITLE3=Easy
TTITLE4=I just called to say I love you
TTITLE5=It's not unusual
TTITLE6=E ipo
TTITLE7=Wonderful world
TTITLE8=Can't take my eyes off you
TTITLE9=Let it be
TTITLE10=I can't help falling in love with you
EXTD=
EXTT0=
EXTT1=
EXTT2=
EXTT3=
EXTT4=
EXTT5=
EXTT6=
EXTT7=
EXTT8=
EXTT9=
EXTT10=
PLAYORDER=
